# xmcd
#
# Track frame offsets: 
#        225
#        13168
#        28183
#        38858
#        52345
#        65467
#        78775
#        92595
#        103799
#        116201
#        128718
#        143124
#        160904
#        176992
#        195113
#        210278
#
# Disc length: 2977 seconds
#
# Revision: 8
# Processed by: cddbd v1.5.2PL0 Copyright (c) Steve Scherf et al.
# Submitted via: ExactAudioCopyFreeDBPlugin 1.0
#
DISCID=dc0b9e10
DTITLE=Various Artist - DeutscheTrucker Songs - Folge 2
DYEAR=1995
DGENRE=Country
TTITLE0=Gunter Gabriel - Hey Boss, ich brauch mehr Geld
TTITLE1=Sammy's Saloon - Das Lied vom Hufeisen
TTITLE2=Little Ma' Cissy - Truckerfeste
TTITLE3=Black bottom Skiffle Group - Nach Amerika
TTITLE4=Andre Lamberz and Hill's Angels - Ich geh' nie wieder auf den Ac
TTITLE4=ker (I Never Picked Cotton)
TTITLE5=Olivia Winter - Wir hör'n uns wieder im Radio
TTITLE6=Lone Star - Der Cowboy vom Land
TTITLE7=Gudrun Lange and Kactus - Bärenstarke Cowboys
TTITLE8=Ralf Paulsen - Die Western von Gestern
TTITLE9=Tennessee - Das Fußball-Lied
TTITLE10=Sammy's Saloon - Sammy's Honky Tonk Saloon
TTITLE11=Jonny HIll - Träume , die hat jeder
TTITLE12=Tom Astor - Ich möcht' so gern Dave Dudley hörn
TTITLE13=Nancy Wood - König der Nacht
TTITLE14=Western Starlights - Ein Trucker steht schon am Himmelstor
TTITLE15=Black Bottom Skiffle Group - I und der Niedermeier (Ring Of F
TTITLE15=ire)
EXTD=YEAR: 1995
EXTT0=
EXTT1=
EXTT2=
EXTT3=
EXTT4=
EXTT5=
EXTT6=
EXTT7=
EXTT8=
EXTT9=
EXTT10=
EXTT11=
EXTT12=
EXTT13=
EXTT14=
EXTT15=
PLAYORDER=
